<?xml version="1.0" encoding="utf-8"?>
<!-- Generator: Adobe Illustrator 27.5.0, SVG Export Plug-In . SVG Version: 6.00 Build 0)  -->
<svg version="1.1" xmlns="http://www.w3.org/2000/svg" xmlns:xlink="http://www.w3.org/1999/xlink" x="0px" y="0px"
	 viewBox="0 0 500 500" style="enable-background:new 0 0 500 500;" xml:space="preserve">
<g id="BACKGROUND">
	<rect style="fill:#1063A0;" width="500" height="500"/>
</g>
<g id="OBJECTS">
	<g>
		<g style="opacity:0.25;">
			<path style="fill:#676A6B;" d="M400.131,77.678H106.072c-6.208,0-11.288,4.27-11.288,9.489v171.681
				c0,5.219,5.08,9.489,11.288,9.489h225.201c2.499,7.586,9.344,16.65-11.167,27.124c37.506-4.29,44.107-17.203,54.438-27.124
				h25.587c6.208,0,11.288-4.27,11.288-9.489V87.167C411.419,81.948,406.34,77.678,400.131,77.678z"/>
		</g>
		<g>
			<path style="fill:#FFFFFF;" d="M394.548,73.025H100.488c-6.208,0-11.288,4.27-11.288,9.489v171.681
				c0,5.219,5.08,9.489,11.288,9.489H325.69c2.499,7.586,9.344,16.65-11.167,27.124c37.506-4.29,44.107-17.203,54.438-27.124h25.587
				c6.208,0,11.288-4.27,11.288-9.489V82.514C405.836,77.295,400.756,73.025,394.548,73.025z"/>
		</g>
	</g>
	<g>
		<g>
			<g style="opacity:0.25;">
				<path style="fill:#676A6B;" d="M66.956,120.515h92.296c2.285,0,4.154,1.297,4.154,2.881v52.131c0,1.585-1.869,2.881-4.154,2.881
					h-50.444c-0.919,2.303,5.779,12.319,13.327,15.499c-22,3-31.38-12.487-35.182-15.499H66.956c-2.285,0-4.154-1.297-4.154-2.881
					v-52.131C62.802,121.812,64.672,120.515,66.956,120.515z"/>
			</g>
			<g>
				<path style="fill:#F9CD53;" d="M60.956,115.515h92.296c2.285,0,4.154,1.297,4.154,2.881v52.131c0,1.585-1.869,2.881-4.154,2.881
					h-50.444c-0.919,2.303,5.779,12.319,13.327,15.499c-22,3-31.38-12.487-35.182-15.499H60.956c-2.285,0-4.154-1.297-4.154-2.881
					v-52.131C56.802,116.812,58.672,115.515,60.956,115.515z"/>
			</g>
		</g>
		<g>
			<circle style="fill:#FFFFFF;" cx="131.604" cy="146.216" r="8"/>
			<circle style="fill:#FFFFFF;" cx="106.604" cy="146.216" r="8"/>
			<circle style="fill:#FFFFFF;" cx="82.604" cy="146.216" r="8"/>
		</g>
	</g>
	<g>
		<g>
			<g>
				<path style="fill:#F9CD53;" d="M227.204,260.501c0,0-54.794,13.922-60.561,22.211c-5.766,8.289-28.386,68.539-28.386,68.539
					h223.485c0,0-30.371-66.08-36.21-72.165c-5.839-6.085-56.298-18.584-56.298-18.584H227.204z"/>
				<g>
					<path style="fill:#F4B20C;" d="M313.933,318.975c0,0,4.185,21.233,5.212,32.275h9.633
						C324.896,340.142,313.933,318.975,313.933,318.975z"/>
					<path style="fill:#F4B20C;" d="M185.559,314.624c0,0-2.377,24.913-4.447,36.626h11.366
						C189.746,339.041,185.559,314.624,185.559,314.624z"/>
				</g>
				<polygon style="fill:#F4B20C;" points="227.204,255.25 207.853,280.114 228.184,280.114 220.494,297.682 255.757,325.25 
					285.639,293.182 273.257,277.412 292.831,275.832 270.313,254 				"/>
				<rect x="196.918" y="321.333" style="fill:#FFFFFF;" width="39" height="8.667"/>
			</g>
			<g>
				<g>
					<ellipse style="fill:#EFBB97;" cx="308.618" cy="192.934" rx="11.175" ry="14.208"/>
					<path style="fill:#D69C77;" d="M302.995,189.269c1.777-3.978,6.28-7.557,9.874-3.123c2.851,3.517,2.575,10.914-0.58,14.162
						c-3.385,3.485-8.8,1.906-9.733-2.836c-0.393-1.997-0.183-4.43,1.877-5.38c2.079-0.958,4.158,0.315,4.579,2.456
						c0.266,1.351-1.712,2.426-2.381,1.004c-1.1-0.149-1.505,0.164-1.215,0.939c0.027,0.586,0.187,1.139,0.482,1.658
						c0.944,1.296,2.669,1.216,3.822,0.402c1.783-1.259,2.104-3.643,2.154-5.661c0.041-1.641-0.007-4.249-1.335-5.451
						c-2.508-2.269-4.649,0.941-6,2.733C303.846,191.091,302.52,190.331,302.995,189.269L302.995,189.269z"/>
				</g>
				<path style="fill:#F4B20C;" d="M174.002,177.699c-0.436-1.087-10.436-26.931,11.065-53.762
					c21.648-27.015,82.229-25.205,104.009-12.873c21.726,12.3,24.099,58.606,24.189,60.572l-4.995,0.23
					c-0.021-0.454-2.329-45.508-21.657-56.451c-20.001-11.325-77.826-13.081-97.644,11.649
					c-8.226,10.265-12.468,21.573-12.61,33.611c-0.106,9.022,2.262,15.107,2.286,15.167L174.002,177.699z"/>
				<g>
					<g>
						<path style="fill:#0E6E9E;" d="M301.105,185.415c0.048,9.149,4.697,16.542,10.383,16.512c5.687-0.03,10.258-7.471,10.21-16.62
							c-0.048-9.149-4.697-16.542-10.383-16.512C305.628,168.824,301.057,176.265,301.105,185.415z"/>
						<path style="fill:#1BBCED;" d="M304.089,185.747c0.048,9.149,4.697,16.542,10.383,16.512c5.687-0.03,10.258-7.471,10.21-16.62
							c-0.048-9.149-4.697-16.542-10.383-16.512C308.612,169.157,304.041,176.598,304.089,185.747z"/>
					</g>
					<path style="fill:#0A5472;" d="M318.368,185.672c0.029,5.479,1.632,9.913,3.581,9.902c1.949-0.01,3.506-4.46,3.477-9.939
						c-0.029-5.479-1.632-9.913-3.581-9.902C319.896,175.743,318.339,180.193,318.368,185.672z"/>
				</g>
			</g>
			<g>
				<g>
					<path style="fill:#EFBB97;" d="M228.184,242c0,0.333,0,24.188,0,24.188L253.889,297c0,0,17.031-27.667,16.407-31.75
						c-0.624-4.083,0-23.25,0-23.25H228.184z"/>
					<path style="fill:#D69C77;" d="M269.859,256.328V242h-41.674c0,0.151,0,5.186,0,10.635
						C240.856,258.924,255.72,259.587,269.859,256.328z"/>
				</g>
				<g>
					<path style="fill:#EFBB97;" d="M196.172,147.247c0,0-1.589,68.049,3.179,77.667c4.768,9.617,28.608,25.333,52.13,25.333
						s49.905-18,52.766-25.667c2.861-7.667,0-88.333,0-88.333s-10.672-23.333-57.534-23.333
						C199.851,112.913,196.172,147.247,196.172,147.247z"/>
					<g>
						<g>
							
								<ellipse transform="matrix(0.9955 -0.0951 0.0951 0.9955 -17.2523 18.9554)" style="fill:#EFBB97;" cx="190.175" cy="190.416" rx="12.175" ry="15.479"/>
							<path style="fill:#D69C77;" d="M195.544,185.891c-2.339-4.13-7.595-7.545-11.033-2.364
								c-2.728,4.11-1.661,12.104,2.097,15.299c4.033,3.429,9.742,1.155,10.262-4.085c0.219-2.206-0.261-4.824-2.593-5.64
								c-2.354-0.824-4.477,0.772-4.712,3.138c-0.148,1.493,2.108,2.454,2.687,0.842c1.178-0.276,1.649,0.022,1.415,0.892
								c0.032,0.638-0.085,1.255-0.351,1.849c-0.889,1.503-2.768,1.596-4.104,0.832c-2.065-1.181-2.659-3.733-2.923-5.916
								c-0.214-1.775-0.433-4.609,0.883-6.051c2.484-2.721,5.139,0.539,6.791,2.343C194.81,187.956,196.169,186.994,195.544,185.891
								L195.544,185.891z"/>
						</g>
					</g>
					<g>
						<path style="fill:#683804;" d="M293.518,157.5c0,0,7.46,31.383,8.355,27.731c0.895-3.651,4.245-6.148,4.245-6.148V153.25
							L293.518,157.5z"/>
						<path style="fill:#683804;" d="M196.918,180.087c4.978,6.692,13.1-44.337,13.1-44.337s5.75,22,29.5,20
							c9.955-2.25,1.126-13.25,1.126-13.25s12.518,16.135,45.124,18.993c32.607,2.858,48.25-31.906,45.75-40.243
							s-24.785-0.087-38-5.25c-13.215-5.163-23.656-19.119-48.745-19.119c-25.089,0-36.005,10.119-36.005,10.119s-0.5-10-7.25-10
							s-4.6,13.75-4.6,13.75s-5.65-9.5-10.4-7.5s3.434,13.75,3.434,13.75s-12.934,5-15.684,19s9.962,40.587,9.962,40.587
							S191.94,173.395,196.918,180.087z"/>
					</g>
					<g>
						<g>
							<path style="fill:#1D1D1B;" d="M235.503,193.864c-0.766-6.918-2.896-13.749-9.798-14.33c-0.565-0.048-1.1-0.038-1.62-0.001
								c-0.522-0.006-1.056,0.016-1.618,0.098c-6.855,0.992-8.573,7.938-8.924,14.89c-0.239,2.354-0.236,4.705-0.032,6.829
								c0.038,1.669,0.083,3.199,0.063,4.471c-0.042,2.763,4.289,2.628,4.305-0.129c0.022-3.673-0.973-10.771,0.187-16.024
								c0.427-1.583,0.992-3.001,1.739-4.113c0.62-0.821,1.393-1.473,2.364-1.886c0.726-0.309,1.395-0.475,2.022-0.539
								c0.63,0.027,1.308,0.153,2.051,0.417c0.994,0.354,1.805,0.959,2.473,1.742c0.812,1.065,1.461,2.447,1.982,4.001
								c1.473,5.174,0.904,12.32,1.145,15.985c0.181,2.75,4.512,2.626,4.305-0.129c-0.096-1.27-0.142-2.799-0.204-4.467
								C236.02,198.546,235.882,196.199,235.503,193.864z"/>
							<path style="fill:#1D1D1B;" d="M291.378,192.193c-0.766-6.918-2.896-13.749-9.798-14.33c-0.565-0.048-1.1-0.038-1.621-0.001
								c-0.522-0.006-1.056,0.016-1.617,0.098c-6.855,0.992-8.573,7.938-8.924,14.89c-0.239,2.354-0.236,4.705-0.032,6.829
								c0.038,1.669,0.083,3.199,0.064,4.471c-0.042,2.763,4.289,2.627,4.305-0.129c0.022-3.673-0.973-10.771,0.187-16.024
								c0.427-1.583,0.992-3.001,1.739-4.113c0.62-0.821,1.393-1.473,2.364-1.886c0.726-0.309,1.395-0.475,2.022-0.539
								c0.63,0.027,1.308,0.153,2.051,0.417c0.994,0.354,1.805,0.959,2.473,1.742c0.812,1.065,1.461,2.447,1.982,4.001
								c1.473,5.174,0.904,12.32,1.145,15.985c0.181,2.75,4.512,2.626,4.305-0.129c-0.096-1.269-0.142-2.799-0.204-4.467
								C291.895,196.875,291.758,194.528,291.378,192.193z"/>
						</g>
						<path style="fill:#D69C77;" d="M249.863,182.34c1.193,5.238,2.773,10.129,6.052,14.391c1.57,2.041,5.473,4.307,5.7,7.033
							c0.219,2.623-2.999,4.702-4.781,5.604c-2.375,1.201-4.81,1.338-7.128-0.338c-1.38-0.998-0.622-3.461,1.056-2.901
							c1.539,0.514,7.125,0.555,7.469-1.972c0.105-0.771-4.668-5.139-6.052-7.499c-2.51-4.28-4.029-9.166-3.906-14.139
							C248.297,181.563,249.631,181.321,249.863,182.34L249.863,182.34z"/>
						<g>
							<path style="fill:#592E04;" d="M212.22,174.785c4.648-3.452,9.713-5.619,15.884-4.719c3.617,0.527,6.974-3.47,3.702-5.76
								c-4.077-2.854-9.219-2.773-13.865-0.681c-4.078,1.836-8.851,5.295-9.998,9.204
								C207.288,175.056,210.411,176.128,212.22,174.785L212.22,174.785z"/>
							<path style="fill:#592E04;" d="M292.061,174.094c-4.498-2.941-9.311-4.667-14.979-3.491
								c-3.322,0.689-6.654-2.828-3.749-5.131c3.619-2.87,8.387-3.081,12.808-1.401c3.88,1.475,8.494,4.415,9.774,7.973
								C296.645,174.072,293.811,175.238,292.061,174.094L292.061,174.094z"/>
						</g>
						<g>
							<g>
								<path style="fill:#9B1515;" d="M240.609,218.426c1.605-1.253,9.011,1.8,13.701,1.522c4.69-0.278,10.289-3.424,13.16-2.325
									c2.871,1.099-1.197,19.741-12.839,20.089C242.989,238.06,239.004,219.679,240.609,218.426z"/>
								<path style="fill:#FF8A8A;" d="M243.605,230.466c2.336,3.993,5.954,7.397,11.026,7.245c4.527-0.136,7.903-3.04,10.177-6.6
									C258.186,228.087,250.582,227.437,243.605,230.466z"/>
							</g>
							<path style="fill:#D69C77;" d="M247.625,240.924c2.872,3.133,8.136,3.499,11.969,2.333c1.213-0.369,0.619-2.298-0.58-1.882
								c-4.052,1.407-7.159,0.485-10.98-1.016C247.67,240.216,247.342,240.615,247.625,240.924L247.625,240.924z"/>
						</g>
					</g>
				</g>
				<g>
					<ellipse style="opacity:0.6;fill:#E5A088;" cx="286.71" cy="220.516" rx="13.108" ry="7.18"/>
					<ellipse style="opacity:0.6;fill:#E5A088;" cx="221.71" cy="220.516" rx="13.108" ry="7.18"/>
				</g>
			</g>
			<g>
				<path style="fill:#F4B20C;" d="M174.002,177.699c-0.436-1.087-10.436-26.931,11.065-53.762
					c21.648-27.015,82.229-25.205,104.009-12.873c1.045,0.592,2.376,1.463,3.58,2.462c1.926,1.596,3.575,3.327,3.575,3.327
					s-1.047-0.748-4.568-0.915c-2.916-0.138-4.104,0-4.284-0.138c-0.184-0.142-0.461-0.212-0.767-0.385
					c-20.001-11.325-77.826-13.081-97.644,11.649c-8.226,10.265-12.468,21.573-12.61,33.611c-0.106,9.022,2.262,15.107,2.286,15.167
					L174.002,177.699z"/>
				<g>
					<g>
						
							<ellipse transform="matrix(0.991 -0.1341 0.1341 0.991 -23.9985 26.0878)" style="fill:#0E6E9E;" cx="181.663" cy="191.196" rx="12.222" ry="16.566"/>
						
							<ellipse transform="matrix(0.991 -0.1341 0.1341 0.991 -24.1397 25.631)" style="fill:#1BBCED;" cx="178.201" cy="192.016" rx="12.222" ry="16.566"/>
					</g>
					<path style="fill:#0A5472;" d="M173.517,192.65c0.735,5.43-0.528,10.083-2.821,10.393c-2.292,0.31-4.747-3.84-5.481-9.27
						c-0.735-5.43,0.528-10.083,2.821-10.393C170.328,183.07,172.782,187.22,173.517,192.65z"/>
				</g>
				<path style="fill:#F4B20C;" d="M230.014,232.054c-6.888,2.392-12.664,3.932-20.032,2.471c-6.428-1.275-13.982-3.653-17.882-9.28
					c-5.269-7.603-4.717-16.488-5.237-25.194c-0.16-2.677-3.751-2.97-4.899-0.849c-2.178,4.025-1.204,10.108-0.45,14.403
					c1.095,6.245,3.257,12.539,7.576,17.307c5.2,5.742,13.98,8.221,21.441,9.143c7.33,0.905,15.673-0.297,21.286-5.442
					C233.082,233.451,231.408,231.57,230.014,232.054L230.014,232.054z"/>
				<path style="fill:#0A5472;" d="M234.542,236.041l-3.88,1.989c-2.162,1.108-4.837,0.246-5.945-1.916h0
					c-1.108-2.162-0.246-4.837,1.916-5.945l3.88-1.989c2.162-1.108,4.837-0.246,5.945,1.916l0,0
					C237.566,232.258,236.704,234.933,234.542,236.041z"/>
			</g>
		</g>
	</g>
	<g>
		<g>
			<g style="opacity:0.25;">
				<rect x="113.604" y="356.25" style="fill:#676A6B;" width="284.792" height="54.75"/>
			</g>
			<g>
				<rect x="107.604" y="351.25" style="fill:#1BBCED;" width="284.792" height="54.75"/>
			</g>
		</g>
		
			<text transform="matrix(1 0 0 1 119.8095 391.2305)" style="fill:#FFFFFF; font-family:'Metropolis-Black'; font-size:39.0993px;">contact us </text>
	</g>
	<g>
		<g>
			<g style="opacity:0.38;">
				<path style="fill:#D2E0E4;" d="M371.571,91.665c-10.217,0.174-18.388,8.627-18.214,18.844
					c0.174,10.217,8.627,18.388,18.844,18.214c10.216-0.174,18.387-8.627,18.213-18.844
					C390.241,99.661,381.788,91.491,371.571,91.665L371.571,91.665z"/>
				<polygon style="fill:#D2E0E4;" points="371.877,110.669 360.258,102.048 383.224,101.658 				"/>
				<polygon style="fill:#D2E0E4;" points="367.894,109.991 358.741,117.722 358.491,103.025 				"/>
				<polygon style="fill:#D2E0E4;" points="369.421,111.116 371.917,113.011 374.49,110.955 383.664,118.337 360.445,118.732 				
					"/>
				<polygon style="fill:#D2E0E4;" points="375.96,109.771 385.03,102.573 385.28,117.256 				"/>
			</g>
			<g>
				<g>
					<path style="fill:#F4B20C;" d="M368.571,89.665c-10.217,0.174-18.388,8.627-18.214,18.844
						c0.174,10.217,8.627,18.388,18.844,18.214c10.216-0.174,18.387-8.627,18.213-18.844
						C387.241,97.661,378.788,89.491,368.571,89.665L368.571,89.665z"/>
					<g>
						<polygon style="fill:#FFFFFF;" points="368.877,108.669 357.258,100.048 380.224,99.658 						"/>
						<polygon style="fill:#FFFFFF;" points="364.894,107.991 355.741,115.722 355.491,101.025 						"/>
						<polygon style="fill:#FFFFFF;" points="366.421,109.116 368.917,111.011 371.49,108.955 380.664,116.337 357.445,116.732 
													"/>
						<polygon style="fill:#FFFFFF;" points="372.96,107.771 382.03,100.573 382.28,115.256 						"/>
					</g>
				</g>
			</g>
		</g>
		<g>
			<g style="opacity:0.38;">
				<path style="fill:#D2E0E4;" d="M370.773,214.736c-9.769,0.166-17.581,8.249-17.415,18.018
					c0.166,9.769,8.249,17.581,18.018,17.415c9.769-0.166,17.581-8.249,17.415-18.018
					C388.624,222.382,380.541,214.57,370.773,214.736L370.773,214.736z"/>
				<path style="fill:#D2E0E4;" d="M379.921,227.745c0-5.134-3.959-9.298-8.848-9.298c-4.886,0-8.845,4.163-8.845,9.298
					c0,1.87,0.53,3.607,1.433,5.066h-0.024l7.393,13.648l7.136-13.171C379.265,231.74,379.921,229.827,379.921,227.745z
					 M371.072,223.443c2.257,0,4.096,1.93,4.096,4.302c0,2.373-1.839,4.302-4.096,4.302c-2.257,0-4.093-1.929-4.093-4.302
					C366.979,225.373,368.815,223.443,371.072,223.443z"/>
			</g>
			<g>
				<g>
					<path style="fill:#F4B20C;" d="M367.773,212.736c-9.769,0.166-17.581,8.249-17.415,18.018
						c0.166,9.769,8.249,17.581,18.018,17.415c9.769-0.166,17.581-8.249,17.415-18.018
						C385.624,220.382,377.541,212.57,367.773,212.736L367.773,212.736z"/>
					<path style="fill:#FFFFFF;" d="M376.921,225.745c0-5.134-3.959-9.298-8.848-9.298c-4.886,0-8.845,4.163-8.845,9.298
						c0,1.87,0.53,3.607,1.433,5.066h-0.024l7.393,13.648l7.136-13.171C376.265,229.74,376.921,227.827,376.921,225.745z
						 M368.072,221.443c2.257,0,4.096,1.93,4.096,4.302c0,2.373-1.839,4.302-4.096,4.302c-2.257,0-4.093-1.929-4.093-4.302
						C363.979,223.373,365.815,221.443,368.072,221.443z"/>
				</g>
			</g>
		</g>
		<g>
			<g style="opacity:0.38;">
				<path style="fill:#D2E0E4;" d="M370.773,154.474c-9.769,0.166-17.581,8.249-17.415,18.018
					c0.166,9.769,8.249,17.581,18.018,17.415c9.769-0.166,17.581-8.249,17.415-18.018
					C388.624,162.12,380.541,154.308,370.773,154.474L370.773,154.474z"/>
				<path style="fill:#D2E0E4;" d="M374.897,177.305c0.513-0.361,5.982,4.282,6.146,4.872c0.164,0.59-1.312,1.65-1.312,1.65
					s-1.975,1.532-2.828,1.65c-0.096,0.01-0.192,0.015-0.288,0.018c-3.22,0.158-8.022-3.651-11.615-9.502
					c-3.595-5.854-4.818-11.862-3.217-14.661c2.166-1.673,4.327-2.443,4.954-2.443c0.627,0,2.001,7.416,1.592,7.693
					c-0.409,0.277-2.344,0.342-2.872,0.495c-0.528,0.153-0.732,1.248-0.42,1.756c0,0,6.404,10.943,7.754,10.758
					C374.14,179.405,374.384,177.666,374.897,177.305z"/>
			</g>
			<g>
				<g>
					<path style="fill:#F4B20C;" d="M367.773,152.474c-9.769,0.166-17.581,8.249-17.415,18.018
						c0.166,9.769,8.249,17.581,18.018,17.415c9.769-0.166,17.581-8.249,17.415-18.018
						C385.624,160.12,377.541,152.308,367.773,152.474L367.773,152.474z"/>
					<path style="fill:#FFFFFF;" d="M371.897,175.305c0.513-0.361,5.982,4.282,6.146,4.872c0.164,0.59-1.312,1.65-1.312,1.65
						s-1.975,1.532-2.828,1.65c-0.096,0.01-0.192,0.015-0.288,0.018c-3.22,0.158-8.022-3.651-11.615-9.502
						c-3.595-5.854-4.818-11.862-3.217-14.661c2.166-1.673,4.327-2.443,4.954-2.443c0.627,0,2.001,7.416,1.592,7.693
						c-0.409,0.277-2.344,0.342-2.872,0.495c-0.528,0.153-0.732,1.248-0.42,1.756c0,0,6.404,10.943,7.754,10.758
						C371.14,177.405,371.384,175.666,371.897,175.305z"/>
				</g>
			</g>
		</g>
	</g>
</g>
<g id="DESIGNED_BY_FREEPIK">
	<g>
		<g id="XMLID_511_">
			<g id="XMLID_530_">
				<path id="XMLID_538_" style="fill:#1D262D;" d="M260.104,465.465c-0.433,0.443-0.804,0.932-1.108,1.453l-0.465-0.241
					c-0.067-0.297-0.35-0.502-0.659-0.466c-0.331,0.039-0.567,0.339-0.529,0.67c0.039,0.331,0.339,0.567,0.67,0.528
					c0.065-0.007,0.127-0.025,0.184-0.052l0.451,0.234c-0.251,0.554-0.433,1.139-0.539,1.743l0.747,0.132
					c0.229-1.306,0.85-2.507,1.792-3.473L260.104,465.465z"/>
				<path id="XMLID_537_" style="fill:#1D262D;" d="M265.591,463.163c-0.171,0-0.341,0.006-0.509,0.017l-0.074-0.626
					c0.188-0.149,0.296-0.389,0.266-0.645c-0.046-0.393-0.402-0.674-0.795-0.628c-0.394,0.046-0.675,0.402-0.628,0.796
					c0.03,0.254,0.189,0.461,0.404,0.563l0.073,0.624c-0.714,0.116-1.402,0.332-2.06,0.645l0.327,0.685
					c0.935-0.447,1.941-0.674,2.995-0.674c0.497,0,0.993,0.053,1.476,0.158l0.16-0.741
					C266.692,463.222,266.142,463.163,265.591,463.163z"/>
				<path id="XMLID_536_" style="fill:#1D262D;" d="M272.194,465.71c0.331-0.04,0.566-0.341,0.525-0.672
					c-0.04-0.331-0.341-0.566-0.672-0.525c-0.31,0.038-0.535,0.304-0.53,0.608l-0.416,0.363c-0.418-0.43-0.89-0.813-1.407-1.14
					l-0.404,0.642c1.135,0.715,2.021,1.727,2.564,2.925l0.69-0.313c-0.251-0.554-0.567-1.071-0.942-1.545l0.402-0.351
					C272.065,465.715,272.128,465.719,272.194,465.71z"/>
				<path id="XMLID_535_" style="fill:#1D262D;" d="M265.044,473.371c-0.386,0.023-0.775,0.035-1.157,0.035
					c-0.88,0-1.733-0.061-2.479-0.18c-0.391-0.061-0.846-0.154-1.271-0.292c1.047,1.861,3.069,3.125,5.389,3.125
					c2.855,0,5.263-1.916,5.949-4.503c-0.682,0.449-1.505,0.825-2.458,1.122C267.838,473.047,266.463,473.286,265.044,473.371z"/>
				<path id="XMLID_531_" style="fill:#1D262D;" d="M265.591,464.68c-3.351,0-6.079,2.666-6.079,5.943
					c0,0.425,0.046,0.849,0.137,1.261c0.674,0.483,2.706,0.891,5.348,0.731c2.88-0.174,5.297-0.958,6.672-2.159
					c-0.005-0.194-0.02-0.39-0.045-0.581C271.244,466.913,268.65,464.68,265.591,464.68z M263.432,471.194
					c-1.02,0-1.85-0.83-1.85-1.85c0-1.021,0.83-1.85,1.85-1.85c1.02,0,1.85,0.83,1.85,1.85
					C265.282,470.364,264.452,471.194,263.432,471.194z M268.169,470.286c-0.75,0-1.36-0.61-1.36-1.36s0.61-1.36,1.36-1.36
					s1.36,0.61,1.36,1.36S268.919,470.286,268.169,470.286z"/>
			</g>
			<path id="XMLID_528_" style="fill:#1D262D;" d="M281.595,466.547c-0.295-0.116-0.806-0.31-1.383-0.238
				c-0.551,0.069-0.844,0.341-0.844,1.007v0.866h2.229v1.717h-2.229v5.455h-1.932v-5.455h-1.339v-1.717h1.339v-0.889
				c0-1.68,0.896-2.782,2.568-2.782c0.643,0,1.157,0.121,1.59,0.308V466.547z"/>
			<path id="XMLID_526_" style="fill:#1D262D;" d="M286.297,469.878c-0.177-0.029-0.357-0.046-0.525-0.046
				c-0.896,0-1.51,0.548-1.51,1.613v3.908h-1.933v-7.172h1.873v0.784c0.451-0.673,1.14-0.977,2.021-0.977
				c0.414,0,0.848,0.128,1.095,0.337L286.297,469.878z"/>
			<path id="XMLID_523_" style="fill:#1D262D;" d="M293.965,471.757c0,0.222-0.016,0.488-0.037,0.651h-5.085
				c0.207,1.036,0.933,1.487,1.843,1.487c0.622,0,1.295-0.252,1.813-0.689l1.133,1.243c-0.814,0.748-1.851,1.089-3.057,1.089
				c-2.198,0-3.724-1.496-3.724-3.753c0-2.258,1.48-3.797,3.627-3.797C292.543,467.989,293.958,469.522,293.965,471.757z
				 M288.851,471.091h3.175c-0.178-0.918-0.732-1.436-1.561-1.436C289.554,469.654,289.021,470.202,288.851,471.091z"/>
			<path id="XMLID_520_" style="fill:#1D262D;" d="M301.619,471.757c0,0.222-0.016,0.488-0.037,0.651h-5.085
				c0.207,1.036,0.933,1.487,1.843,1.487c0.622,0,1.296-0.252,1.814-0.689l1.133,1.243c-0.815,0.748-1.851,1.089-3.058,1.089
				c-2.198,0-3.723-1.496-3.723-3.753c0-2.258,1.48-3.797,3.627-3.797C300.197,467.989,301.611,469.522,301.619,471.757z
				 M296.504,471.091h3.175c-0.178-0.918-0.733-1.436-1.561-1.436C297.208,469.654,296.674,470.202,296.504,471.091z"/>
			<path id="XMLID_517_" style="fill:#1D262D;" d="M309.964,471.764c0,2.154-1.495,3.775-3.472,3.775
				c-0.962,0-1.644-0.378-2.109-0.933v3.708h-1.925v-10.133h1.888v0.792c0.467-0.585,1.154-0.984,2.139-0.984
				C308.469,467.989,309.964,469.61,309.964,471.764z M304.287,471.764c0,1.133,0.748,1.977,1.844,1.977
				c1.14,0,1.85-0.881,1.85-1.977c0-1.095-0.71-1.976-1.85-1.976C305.035,469.788,304.287,470.632,304.287,471.764z"/>
			<path id="XMLID_514_" style="fill:#1D262D;" d="M313.068,465.835c0,0.696-0.541,1.23-1.236,1.23c-0.696,0-1.229-0.533-1.229-1.23
				c0-0.695,0.532-1.243,1.229-1.243C312.527,464.592,313.068,465.14,313.068,465.835z M312.808,475.353h-1.932v-7.172h1.932
				V475.353z"/>
			<path id="XMLID_512_" style="fill:#1D262D;" d="M316.032,470.735l2.702-2.554h2.368l-3.478,3.375l3.501,3.797h-2.376
				l-2.717-2.901v2.901H314.1v-10.658h1.932V470.735z"/>
		</g>
		<g>
			<path style="fill:#1D262D;" d="M184.412,475.289v-1.055c-0.527,0.718-1.391,1.23-2.387,1.23c-1.846,0-3.149-1.406-3.149-3.706
				c0-2.256,1.289-3.721,3.149-3.721c0.952,0,1.816,0.469,2.387,1.245v-3.765h1.099v9.771H184.412z M184.412,473.37v-3.208
				c-0.395-0.615-1.245-1.143-2.124-1.143c-1.42,0-2.27,1.172-2.27,2.739c0,1.567,0.85,2.725,2.27,2.725
				C183.167,474.483,184.017,473.985,184.412,473.37z"/>
			<path style="fill:#1D262D;" d="M186.932,471.744c0-2.051,1.465-3.706,3.486-3.706c2.139,0,3.398,1.67,3.398,3.794v0.278h-5.727
				c0.088,1.333,1.025,2.446,2.549,2.446c0.806,0,1.626-0.322,2.182-0.894l0.527,0.718c-0.703,0.703-1.655,1.084-2.812,1.084
				C188.44,475.465,186.932,473.956,186.932,471.744z M190.403,468.946c-1.509,0-2.256,1.274-2.314,2.358h4.644
				C192.718,470.25,192.015,468.946,190.403,468.946z"/>
			<path style="fill:#1D262D;" d="M194.607,474.352l0.571-0.791c0.469,0.542,1.362,1.011,2.329,1.011c1.084,0,1.67-0.513,1.67-1.216
				c0-1.714-4.38-0.659-4.38-3.281c0-1.099,0.952-2.036,2.636-2.036c1.202,0,2.051,0.454,2.623,1.025l-0.513,0.762
				c-0.424-0.513-1.201-0.893-2.109-0.893c-0.966,0-1.567,0.483-1.567,1.113c0,1.553,4.379,0.527,4.379,3.281
				c0,1.186-0.952,2.139-2.783,2.139C196.306,475.465,195.325,475.113,194.607,474.352z"/>
			<path style="fill:#1D262D;" d="M201.477,466.471c0-0.41,0.337-0.747,0.732-0.747c0.41,0,0.747,0.337,0.747,0.747
				c0,0.41-0.337,0.732-0.747,0.732C201.814,467.203,201.477,466.881,201.477,466.471z M201.667,475.289v-7.075h1.099v7.075H201.667
				z"/>
			<path style="fill:#1D262D;" d="M204.582,477.105l0.556-0.82c0.586,0.703,1.289,0.967,2.3,0.967c1.172,0,2.27-0.571,2.27-2.124
				v-1.011c-0.513,0.718-1.377,1.26-2.373,1.26c-1.846,0-3.149-1.377-3.149-3.662c0-2.271,1.289-3.677,3.149-3.677
				c0.952,0,1.802,0.469,2.373,1.245v-1.069h1.099v6.87c0,2.344-1.641,3.076-3.369,3.076
				C206.237,478.16,205.416,477.925,204.582,477.105z M209.708,473.253v-3.091c-0.381-0.615-1.23-1.143-2.109-1.143
				c-1.421,0-2.27,1.128-2.27,2.695c0,1.553,0.849,2.695,2.27,2.695C208.478,474.41,209.328,473.868,209.708,473.253z"/>
			<path style="fill:#1D262D;" d="M217.413,475.289v-4.629c0-1.245-0.63-1.641-1.582-1.641c-0.864,0-1.685,0.527-2.094,1.099v5.171
				h-1.099v-7.075h1.099v1.025c0.497-0.586,1.464-1.201,2.519-1.201c1.48,0,2.256,0.747,2.256,2.285v4.966H217.413z"/>
			<path style="fill:#1D262D;" d="M219.932,471.744c0-2.051,1.465-3.706,3.486-3.706c2.139,0,3.398,1.67,3.398,3.794v0.278h-5.727
				c0.088,1.333,1.025,2.446,2.548,2.446c0.806,0,1.626-0.322,2.183-0.894l0.527,0.718c-0.703,0.703-1.655,1.084-2.813,1.084
				C221.441,475.465,219.932,473.956,219.932,471.744z M223.404,468.946c-1.509,0-2.256,1.274-2.314,2.358h4.643
				C225.718,470.25,225.015,468.946,223.404,468.946z"/>
			<path style="fill:#1D262D;" d="M233.35,475.289v-1.055c-0.527,0.718-1.392,1.23-2.388,1.23c-1.845,0-3.149-1.406-3.149-3.706
				c0-2.256,1.289-3.721,3.149-3.721c0.952,0,1.817,0.469,2.388,1.245v-3.765h1.098v9.771H233.35z M233.35,473.37v-3.208
				c-0.396-0.615-1.245-1.143-2.124-1.143c-1.421,0-2.27,1.172-2.27,2.739c0,1.567,0.85,2.725,2.27,2.725
				C232.105,474.483,232.954,473.985,233.35,473.37z"/>
			<path style="fill:#1D262D;" d="M239.692,475.289v-9.771h1.099v3.765c0.571-0.776,1.421-1.245,2.388-1.245
				c1.845,0,3.149,1.465,3.149,3.721c0,2.3-1.304,3.706-3.149,3.706c-0.996,0-1.86-0.513-2.388-1.23v1.055H239.692z M242.9,474.483
				c1.436,0,2.285-1.157,2.285-2.725c0-1.567-0.85-2.739-2.285-2.739c-0.864,0-1.729,0.527-2.109,1.143v3.208
				C241.171,473.985,242.036,474.483,242.9,474.483z"/>
			<path style="fill:#1D262D;" d="M247.528,477.061c0.161,0.073,0.425,0.117,0.6,0.117c0.483,0,0.806-0.161,1.055-0.747l0.469-1.069
				l-2.959-7.148h1.187l2.358,5.801l2.344-5.801h1.2l-3.544,8.511c-0.425,1.024-1.143,1.421-2.08,1.436
				c-0.234,0-0.6-0.044-0.806-0.103L247.528,477.061z"/>
		</g>
	</g>
</g>
</svg>
