<svg width="722" height="762" viewBox="0 0 722 762" fill="none" xmlns="http://www.w3.org/2000/svg">
<path d="M223.152 31.5813C216.339 27.6474 205.287 27.6474 198.519 31.5813L7.50139 142.589L6.60547 458.633L197.625 347.625C204.393 343.692 215.447 343.692 222.258 347.625C225.693 349.609 227.408 352.215 227.4 354.817L228.296 38.773C228.302 36.1728 226.587 33.5645 223.152 31.5813Z" fill="#389BD1"/>
<path d="M7.50125 142.589L6.60533 458.635L0 454.821L0.895904 138.777L7.50125 142.589Z" fill="#3186B5"/>
<path d="M38.8194 160.671L37.9235 476.716L31.3284 472.908L32.2243 156.864L38.8194 160.671Z" fill="#3186B5"/>
<path d="M229.837 49.6636L38.8195 160.672L37.9236 476.716L228.943 365.708C234.104 362.708 236.686 358.777 236.699 354.837L237.594 38.7925C237.58 42.7304 234.998 46.6643 229.837 49.6636Z" fill="#389BD1"/>
<path d="M229.715 27.7691C240.17 33.8064 240.225 43.6268 229.839 49.6641L38.8195 160.672L32.2243 156.864L223.244 45.8564C230.012 41.9226 229.975 35.5208 223.154 31.5829C216.341 27.649 205.289 27.649 198.52 31.5829L7.50319 142.591L0.899902 138.777L191.917 27.7691C202.302 21.7319 219.259 21.7319 229.715 27.7691Z" fill="#3EF7E5"/>
<path d="M229.715 27.7691C240.17 33.8064 240.225 43.6268 229.839 49.6641L38.8195 160.672L32.2243 156.864L223.244 45.8564C230.012 41.9226 229.975 35.5208 223.154 31.5829C216.341 27.649 205.289 27.649 198.52 31.5829L7.50319 142.591L0.899902 138.777L191.917 27.7691C202.302 21.7319 219.259 21.7319 229.715 27.7691Z" fill="#50B9F2"/>
<path d="M226.082 43.8402C225.182 44.5854 223.926 45.4528 222.205 46.4607C214.948 50.6797 35.0669 155.204 32.2591 156.85L14.689 146.553L197.484 40.3359C204.26 36.396 215.319 36.3959 222.112 40.3196C223.912 41.3581 225.229 42.5676 226.082 43.8402Z" fill="white"/>
<path d="M32.2591 156.85L14.689 146.553V453.717L31.3285 462.34L32.2591 156.85Z" fill="#CBE6FF"/>
<path d="M340.523 82.2166C335.144 79.1114 326.417 79.1114 321.072 82.2166L170.238 169.872L169.532 419.429L320.365 331.774C325.71 328.668 334.437 328.668 339.817 331.774C342.529 333.339 343.883 335.398 343.877 337.453L344.583 87.8954C344.589 85.841 343.235 83.7824 340.523 82.2166Z" fill="#FE4A62"/>
<path d="M170.238 169.871L169.532 419.428L164.315 416.418L165.024 166.859L170.238 169.871Z" fill="#FE1938"/>
<path d="M194.967 184.149L194.261 433.706L189.054 430.701L189.761 181.144L194.967 184.149Z" fill="#FE1938"/>
<path d="M345.801 96.4937L194.968 184.149L194.259 433.706L345.092 346.051C349.167 343.683 351.207 340.578 351.215 337.466L351.924 87.9092C351.916 91.0204 349.877 94.1256 345.801 96.4937Z" fill="#FE4A62"/>
<path d="M345.703 79.2047C353.96 83.9713 354.003 91.7271 345.801 96.4938L194.968 184.149L189.761 181.141L340.595 93.4864C345.939 90.3812 345.911 85.3254 340.523 82.2141C335.144 79.109 326.417 79.109 321.072 82.2141L170.238 169.869L165.024 166.858L315.857 79.2026C324.059 74.438 337.449 74.438 345.703 79.2047Z" fill="#3EF7E5"/>
<path d="M345.703 79.2047C353.96 83.9713 354.003 91.7271 345.801 96.4938L194.968 184.149L189.761 181.141L340.595 93.4864C345.939 90.3812 345.911 85.3254 340.523 82.2141C335.144 79.109 326.417 79.109 321.072 82.2141L170.238 169.869L165.024 166.858L315.857 79.2026C324.059 74.438 337.449 74.438 345.703 79.2047Z" fill="#FE7386"/>
<path d="M342.836 91.8961C342.126 92.4845 341.134 93.1707 339.774 93.9648C334.042 97.296 192.005 179.832 189.788 181.131L175.913 173.001L320.253 89.1289C325.604 86.0177 334.335 86.0177 339.699 89.1167C341.122 89.9373 342.162 90.8922 342.836 91.8961Z" fill="white"/>
<path d="M189.789 181.131L175.915 173.001V415.548L189.054 422.354L189.789 181.131Z" fill="#CBE6FF"/>
<path d="M500.244 591.756L213.228 424.959C211.68 424.059 210.473 422.568 209.732 420.559L496.748 587.356C497.491 589.367 498.697 590.858 500.244 591.756Z" fill="#3186B5"/>
<mask id="mask0_208_550" style="mask-type:luminance" maskUnits="userSpaceOnUse" x="209" y="420" width="292" height="172">
<path d="M500.244 591.756L213.228 424.959C211.68 424.059 210.473 422.568 209.732 420.559L496.748 587.356C497.491 589.367 498.697 590.858 500.244 591.756Z" fill="white"/>
</mask>
<g mask="url(#mask0_208_550)">
<path d="M500.244 591.756L213.228 424.959C211.68 424.059 210.473 422.568 209.732 420.559L496.748 587.356C497.491 589.367 498.697 590.858 500.244 591.756Z" fill="#3186B5"/>
</g>
<path d="M300.16 700.858L13.1436 534.061L13.0947 516.972L300.111 683.769L300.16 700.858Z" fill="#3186B5"/>
<path d="M300.111 683.768L13.0947 516.971L434.315 273.779L721.332 440.576L300.111 683.768Z" fill="#50B9F2"/>
<path d="M721.332 440.576L721.38 457.666L524.804 571.16C522.795 579.007 517.297 586.971 510.81 590.715C504.31 594.468 498.784 592.869 496.75 587.356L300.16 700.856L300.111 683.766L721.332 440.576Z" fill="#389BD1"/>
<path d="M417.238 273.779L247.684 371.67C237.762 377.398 229.747 391.281 229.78 402.681L494.537 556.54C494.504 545.14 502.519 531.257 512.441 525.529L681.995 427.636L417.238 273.779Z" fill="#F1F2F2"/>
<path d="M681.995 427.641L682.054 448.281L494.537 556.544C494.504 545.144 502.519 531.261 512.441 525.534L681.995 427.641Z" fill="#C4C6C7"/>
<path d="M224.541 391.16C221.275 389.263 216.752 389.529 211.76 392.413L42.1936 490.312L306.951 644.171L476.517 546.272C481.51 543.389 486.032 543.122 489.298 545.02L224.541 391.16Z" fill="white"/>
<path d="M307.008 664.814L42.2507 510.955L42.1917 490.314L306.949 644.174L307.008 664.814Z" fill="#A7A9AB"/>
<path d="M476.515 546.274C486.437 540.546 494.504 545.142 494.537 556.544L307.008 664.814L306.949 644.173L476.515 546.274Z" fill="#C4C6C7"/>
<path d="M288.821 448.654L214.246 491.991L209.074 489.006L283.649 445.667L288.821 448.654Z" fill="#808285"/>
<path d="M298.769 454.397L224.195 497.735L219.023 494.75L293.597 451.41L298.769 454.397Z" fill="#808285"/>
<path d="M238.275 419.469L98.9763 500.421L93.8044 497.436L233.103 416.484L238.275 419.469Z" fill="#808285"/>
<path d="M308.702 460.132L234.127 503.47L228.955 500.485L303.53 457.147L308.702 460.132Z" fill="#808285"/>
<path d="M248.221 425.213L108.925 506.165L103.753 503.178L243.052 422.228L248.221 425.213Z" fill="#808285"/>
<path d="M318.634 465.868L244.06 509.205L238.904 506.229L313.479 462.891L318.634 465.868Z" fill="#808285"/>
<path d="M258.156 430.949L118.858 511.899L113.686 508.914L252.984 427.962L258.156 430.949Z" fill="#808285"/>
<path d="M328.583 471.61L254.008 514.949L248.837 511.962L323.411 468.625L328.583 471.61Z" fill="#808285"/>
<path d="M268.089 436.683L128.79 517.635L123.635 514.658L262.933 433.706L268.089 436.683Z" fill="#808285"/>
<path d="M278.037 442.427L138.739 523.377L133.567 520.392L272.865 439.442L278.037 442.427Z" fill="#808285"/>
<path d="M258.724 526.618L201.725 559.743L144.352 526.618L201.351 493.494L258.724 526.618Z" fill="#808285"/>
<path d="M351.932 485.091L212.635 566.043L207.463 563.056L346.762 482.106L351.932 485.091Z" fill="#808285"/>
<path d="M361.866 490.825L222.568 571.777L217.396 568.792L356.694 487.84L361.866 490.825Z" fill="#808285"/>
<path d="M371.813 496.57L232.516 577.522L227.345 574.534L366.643 493.584L371.813 496.57Z" fill="#808285"/>
<path d="M381.748 502.305L242.449 583.255L237.277 580.27L376.576 499.318L381.748 502.305Z" fill="#808285"/>
<path d="M355.198 529.257L252.398 588.999L247.226 586.014L350.028 526.272L355.198 529.257Z" fill="#808285"/>
<path d="M402.59 514.338L263.291 595.288L258.121 592.303L397.418 511.351L402.59 514.338Z" fill="#808285"/>
<path d="M412.538 520.083L273.24 601.033L268.068 598.048L407.367 517.096L412.538 520.083Z" fill="#808285"/>
<path d="M609.247 407.885L469.95 488.837L464.778 485.85L604.075 404.9L609.247 407.885Z" fill="#808285"/>
<path d="M455.825 319.308L375.282 366.114L370.113 363.129L450.655 316.323L455.825 319.308Z" fill="#808285"/>
<path d="M465.774 325.052L385.231 371.857L380.059 368.872L460.602 322.067L465.774 325.052Z" fill="#808285"/>
<path d="M475.706 330.785L395.163 377.593L389.994 374.608L470.536 327.8L475.706 330.785Z" fill="#808285"/>
<path d="M485.641 336.522L405.096 383.327L399.94 380.35L480.485 333.545L485.641 336.522Z" fill="#808285"/>
<path d="M434.983 307.274L295.684 388.226L290.515 385.239L429.811 304.289L434.983 307.274Z" fill="#808285"/>
<path d="M495.587 342.266L415.045 389.071L409.875 386.086L490.418 339.279L495.587 342.266Z" fill="#808285"/>
<path d="M444.932 313.018L305.633 393.968L300.463 390.983L439.76 310.033L444.932 313.018Z" fill="#808285"/>
<path d="M558.701 378.703L501.7 411.827L444.327 378.703L501.328 345.578L558.701 378.703Z" fill="#808285"/>
<path d="M420.624 400.058L368.573 430.308L311.357 397.273L363.407 367.025L420.624 400.058Z" fill="#808285"/>
<path d="M464.149 399.094L389.572 442.432L384.402 439.447L458.977 396.109L464.149 399.094Z" fill="#808285"/>
<path d="M484.03 410.571L409.454 453.909L404.284 450.924L478.858 407.586L484.03 410.571Z" fill="#808285"/>
<path d="M454.214 393.359L379.64 436.697L374.47 433.712L449.045 390.372L454.214 393.359Z" fill="#808285"/>
<path d="M474.096 404.837L399.521 448.175L394.351 445.19L468.926 401.852L474.096 404.837Z" fill="#808285"/>
<path d="M493.977 416.315L419.402 459.652L414.232 456.667L488.807 413.33L493.977 416.315Z" fill="#808285"/>
<path d="M569.484 384.93L430.188 465.88L425.016 462.895L564.312 381.943L569.484 384.93Z" fill="#808285"/>
<path d="M579.417 390.664L440.12 471.616L434.948 468.629L574.247 387.679L579.417 390.664Z" fill="#808285"/>
<path d="M589.365 396.407L450.069 477.357L444.897 474.372L584.194 393.422L589.365 396.407Z" fill="#808285"/>
<path d="M599.298 402.141L460.001 483.093L454.829 480.106L594.128 399.156L599.298 402.141Z" fill="#808285"/>
<path d="M612.089 565.04C603.739 560.253 598.612 551.342 598.673 541.717C598.824 517.407 585.888 494.898 564.809 482.786L555.553 477.468L308.555 335.869L250.962 369.119L497.774 511.136L497.825 511.108L506.316 515.917C527.468 527.898 540.542 550.328 540.542 574.638V577.922C540.542 587.458 545.629 596.27 553.887 601.037L616.383 637.12L621.649 606.229L676.89 602.185L612.089 565.04Z" fill="#FE7386"/>
<path d="M423.592 92.2041C426.47 93.8656 428.795 97.8912 428.785 101.198C428.775 104.505 426.435 105.838 423.558 104.177C420.669 102.509 418.343 98.4816 418.353 95.1749C418.364 91.8702 420.703 90.5365 423.592 92.2041Z" fill="#808285"/>
<path d="M423.46 139.189C426.337 140.85 428.663 144.876 428.653 148.183C428.642 151.489 426.303 152.837 423.426 151.176C420.536 149.508 418.211 145.466 418.221 142.16C418.231 138.853 420.571 137.519 423.46 139.189Z" fill="#808285"/>
<path d="M548.526 115.785C557.475 120.951 564.701 133.467 564.671 143.75L564.388 243.763C564.359 254.045 557.084 258.189 548.137 253.023L494.054 221.798L481.552 270.117L469.351 207.537L415.281 176.321C406.332 171.155 399.106 158.639 399.136 148.356L399.419 48.3432C399.448 38.0606 406.721 33.917 415.67 39.0827L548.526 115.785ZM545.58 147.533L545.594 142.669L438.544 80.8629L438.53 85.7273L545.58 147.533ZM545.38 218.009L545.394 213.145L438.345 151.339L438.33 156.203L545.38 218.009ZM545.445 194.518L545.459 189.653L438.41 127.848L438.396 132.712L545.445 194.518ZM545.512 171.027L545.527 166.162L438.477 104.356L438.463 109.221L545.512 171.027ZM423.426 151.174C426.303 152.835 428.642 151.487 428.653 148.181C428.663 144.874 426.337 140.848 423.46 139.187C420.571 137.519 418.231 138.851 418.221 142.158C418.211 145.464 420.536 149.506 423.426 151.174ZM423.627 80.6837C426.504 82.3452 428.844 81.0115 428.854 77.7048C428.864 74.3981 426.539 70.3726 423.662 68.711C420.773 67.0434 418.433 68.3751 418.423 71.6818C418.413 74.9886 420.736 79.0161 423.627 80.6837ZM423.493 127.668C426.37 129.33 428.71 127.996 428.72 124.689C428.73 121.383 426.405 117.357 423.527 115.696C420.638 114.028 418.299 115.36 418.288 118.666C418.278 121.973 420.603 126.001 423.493 127.668ZM423.56 104.177C426.437 105.839 428.777 104.505 428.787 101.198C428.797 97.8914 426.472 93.8659 423.595 92.2044C420.705 90.5368 418.366 91.8684 418.356 95.1751C418.345 98.4819 420.671 102.507 423.56 104.177Z" fill="white"/>
<path d="M545.594 142.671L545.58 147.536L438.53 85.7296L438.542 80.8652L545.594 142.671Z" fill="#808285"/>
<path d="M423.66 68.7132C426.537 70.3747 428.862 74.4002 428.852 77.707C428.842 81.0137 426.502 82.3474 423.625 80.6859C420.736 79.0162 418.41 74.9907 418.421 71.684C418.431 68.3772 420.77 67.0435 423.66 68.7132Z" fill="#808285"/>
<path d="M545.392 213.147L545.38 218.011L438.328 156.205L438.343 151.341L545.392 213.147Z" fill="#808285"/>
<path d="M545.459 189.653L545.445 194.517L438.396 132.712L438.41 127.847L545.459 189.653Z" fill="#808285"/>
<path d="M545.527 166.163L545.513 171.027L438.463 109.221L438.477 104.357L545.527 166.163Z" fill="#808285"/>
<path d="M423.527 115.696C426.405 117.357 428.73 121.383 428.72 124.69C428.71 127.996 426.37 129.33 423.493 127.668C420.603 126.001 418.278 121.973 418.288 118.669C418.297 115.362 420.638 114.028 423.527 115.696Z" fill="#808285"/>
<path d="M644.27 283.079L644.26 286.414L622.131 273.637L622.141 270.302L644.27 283.079Z" fill="#808285"/>
<path d="M614.213 281.509L614.202 284.844L592.073 272.067L592.084 268.732L614.213 281.509Z" fill="#808285"/>
<path d="M614.257 265.386L614.249 268.705L592.118 255.93L592.128 252.609L614.257 265.386Z" fill="#808285"/>
<path d="M614.304 249.248L614.294 252.583L592.165 239.808L592.173 236.473L614.304 249.248Z" fill="#808285"/>
<path d="M644.226 299.201L644.216 302.536L622.087 289.759L622.095 286.424L644.226 299.201Z" fill="#808285"/>
<path d="M644.318 266.956L644.307 270.291L622.176 257.514L622.186 254.179L644.318 266.956Z" fill="#808285"/>
<path d="M674.479 316.668L674.471 320.003L652.34 307.226L652.35 303.891L674.479 316.668Z" fill="#808285"/>
<path d="M679.075 249.954C685.222 253.503 690.186 262.102 690.168 269.151L689.972 337.807C689.952 344.87 684.955 347.719 678.808 344.17L641.685 322.737L651.9 283.297L614.762 261.856L624.721 312.945L587.612 291.521C581.465 287.972 576.501 279.373 576.519 272.307L576.715 203.652C576.735 196.602 581.732 193.756 587.879 197.305L679.075 249.954ZM644.352 254.153L644.362 250.818L622.233 238.041L622.223 241.376L644.352 254.153ZM644.307 270.291L644.317 266.956L622.188 254.179L622.178 257.515L644.307 270.291ZM674.516 303.88L674.526 300.545L652.397 287.768L652.387 291.103L674.516 303.88ZM674.608 271.621L674.618 268.286L652.489 255.509L652.478 258.844L674.608 271.621ZM674.471 320.003L674.481 316.667L652.352 303.89L652.342 307.226L674.471 320.003ZM674.561 287.758L674.571 284.423L652.442 271.646L652.432 274.981L674.561 287.758ZM614.202 284.844L614.213 281.509L592.084 268.732L592.073 272.067L614.202 284.844ZM614.341 236.461L614.351 233.125L592.222 220.348L592.212 223.684L614.341 236.461ZM614.294 252.583L614.304 249.248L592.175 236.471L592.165 239.806L614.294 252.583ZM614.249 268.705L614.26 265.384L592.13 252.607L592.12 255.928L614.249 268.705Z" fill="white"/>
<path d="M614.349 233.126L614.341 236.461L592.21 223.686L592.22 220.351L614.349 233.126Z" fill="#808285"/>
<path d="M644.362 250.82L644.352 254.155L622.223 241.378L622.233 238.043L644.362 250.82Z" fill="#808285"/>
<path d="M674.526 300.545L674.516 303.88L652.387 291.103L652.395 287.768L674.526 300.545Z" fill="#808285"/>
<path d="M674.571 284.423L674.561 287.758L652.431 274.981L652.442 271.646L674.571 284.423Z" fill="#808285"/>
<path d="M674.617 268.287L674.607 271.622L652.476 258.845L652.486 255.51L674.617 268.287Z" fill="#808285"/>
<path d="M614.762 261.855L651.9 283.296L641.685 322.737L633.096 355.896L624.723 312.943L614.762 261.855ZM622.131 273.637L644.26 286.414L644.271 283.078L622.141 270.301L622.131 273.637ZM644.216 302.536L644.226 299.201L622.097 286.424L622.086 289.759L644.216 302.536Z" fill="white"/>
<path d="M347.362 414.705L347.163 485.156C347.124 498.636 338.265 512.097 320.573 522.378C284.948 543.079 227.008 543.079 191.152 522.378C173.107 511.961 164.097 498.286 164.136 484.633L164.335 414.182C164.296 427.834 173.309 441.509 191.351 451.926C227.208 472.628 285.149 472.628 320.772 451.926C338.466 441.646 347.326 428.186 347.362 414.705Z" fill="#262526"/>
<path d="M347.355 414.681C347.437 385.405 306.53 361.558 255.988 361.417C205.445 361.275 164.406 384.893 164.324 414.168C164.242 443.443 205.148 467.291 255.691 467.432C306.234 467.574 347.273 443.956 347.355 414.681Z" fill="#414042"/>
<path d="M407.238 411.33L407.214 420.067L256.23 507.81L256.256 499.073L407.238 411.33Z" fill="#373638"/>
<path d="M256.256 499.073L256.23 507.81L104.26 420.069L104.284 411.332L256.256 499.073Z" fill="#373638"/>
<path d="M407.238 411.33L256.256 499.073L104.284 411.333L255.266 323.59L407.238 411.33Z" fill="#49484A"/>
<path d="M254.389 408.883L333.244 454.333V477.358" stroke="#FFD08A" stroke-width="2" stroke-miterlimit="10" stroke-linecap="round" stroke-linejoin="round"/>
<path d="M333.244 482.782C335.635 482.782 337.574 480.843 337.574 478.452C337.574 476.06 335.635 474.121 333.244 474.121C330.852 474.121 328.913 476.06 328.913 478.452C328.913 480.843 330.852 482.782 333.244 482.782Z" fill="#FFD08A"/>
<path d="M340.421 498.271C344.412 500.576 344.432 504.31 340.468 506.615C336.504 508.92 330.055 508.92 326.064 506.615C322.073 504.31 322.053 500.576 326.017 498.273C329.982 495.968 336.43 495.966 340.421 498.271Z" fill="#FFD08A"/>
<path d="M333.244 475.399L323.059 502.113H343.428L333.244 475.399Z" fill="#FFD08A"/>
<path d="M336.901 361.235L291.376 146.938" stroke="#FFD08A" stroke-width="4" stroke-miterlimit="10" stroke-linecap="round" stroke-linejoin="round"/>
<path d="M372.092 340.327L326.567 126.031" stroke="#FFD08A" stroke-width="4" stroke-miterlimit="10" stroke-linecap="round" stroke-linejoin="round"/>
<path d="M296.705 172.026L330.792 152.495" stroke="#FFD08A" stroke-width="4" stroke-miterlimit="10" stroke-linecap="round" stroke-linejoin="round"/>
<path d="M304.864 207.606L338.949 188.075" stroke="#FFD08A" stroke-width="4" stroke-miterlimit="10" stroke-linecap="round" stroke-linejoin="round"/>
<path d="M313.466 242.946L347.554 223.415" stroke="#FFD08A" stroke-width="4" stroke-miterlimit="10" stroke-linecap="round" stroke-linejoin="round"/>
<path d="M319.858 278.597L353.943 259.066" stroke="#FFD08A" stroke-width="4" stroke-miterlimit="10" stroke-linecap="round" stroke-linejoin="round"/>
<path d="M326.567 309.088L360.654 289.56" stroke="#FFD08A" stroke-width="4" stroke-miterlimit="10" stroke-linecap="round" stroke-linejoin="round"/>
<path d="M332.942 338.393L367.03 318.864" stroke="#FFD08A" stroke-width="4" stroke-miterlimit="10" stroke-linecap="round" stroke-linejoin="round"/>
<path d="M40.3406 571.381L40.3264 576.36L26.5598 584.362L26.572 579.381L40.3406 571.381Z" fill="#FFD08A"/>
<path d="M42.9937 572.913L29.2252 580.913L26.572 579.381L40.3406 571.381L42.9937 572.913Z" fill="#808285"/>
<path d="M42.9938 572.914L42.9795 577.892L29.2109 585.894L29.2252 580.914L42.9938 572.914Z" fill="#808285"/>
<path d="M29.2252 580.913L29.2109 585.894L26.5598 584.362L26.572 579.382L29.2252 580.913Z" fill="#808285"/>
<path d="M53.588 579.03L53.5738 584.008L39.8052 592.01L39.8194 587.03L53.588 579.03Z" fill="#FFD08A"/>
<path d="M42.4726 588.561L42.4583 593.541L39.8052 592.01L39.8194 587.029L42.4726 588.561Z" fill="#808285"/>
<path d="M56.2411 580.561L56.2268 585.539L42.4583 593.542L42.4725 588.561L56.2411 580.561Z" fill="#808285"/>
<path d="M56.241 580.561L42.4725 588.561L39.8193 587.03L53.5879 579.03L56.241 580.561Z" fill="#808285"/>
<path d="M66.8231 586.669L66.8089 591.65L53.0403 599.65L53.0545 594.672L66.8231 586.669Z" fill="#FFD08A"/>
<path d="M69.4742 588.201L69.4599 593.181L55.6934 601.181L55.7056 596.203L69.4742 588.201Z" fill="#808285"/>
<path d="M55.7056 596.202L55.6934 601.181L53.0403 599.649L53.0545 594.671L55.7056 596.202Z" fill="#808285"/>
<path d="M69.4741 588.201L55.7055 596.203L53.0544 594.672L66.823 586.669L69.4741 588.201Z" fill="#808285"/>
<path d="M80.0704 594.319L80.0562 599.297L66.2876 607.299L66.3018 602.319L80.0704 594.319Z" fill="#FFD08A"/>
<path d="M68.9529 603.851L68.9407 608.831L66.2876 607.3L66.3018 602.32L68.9529 603.851Z" fill="#808285"/>
<path d="M82.7215 595.85L82.7072 600.829L68.9407 608.831L68.9529 603.85L82.7215 595.85Z" fill="#808285"/>
<path d="M82.7214 595.85L68.9529 603.85L66.3018 602.319L80.0703 594.319L82.7214 595.85Z" fill="#808285"/>
<path d="M93.3035 601.958L93.2892 606.939L79.5227 614.939L79.537 609.961L93.3035 601.958Z" fill="#FFD08A"/>
<path d="M82.188 611.493L82.1738 616.471L79.5227 614.94L79.537 609.961L82.188 611.493Z" fill="#808285"/>
<path d="M95.9567 603.49L95.9424 608.47L82.1738 616.47L82.1881 611.492L95.9567 603.49Z" fill="#808285"/>
<path d="M95.9565 603.49L82.188 611.492L79.5369 609.961L93.3034 601.958L95.9565 603.49Z" fill="#808285"/>
<path d="M106.551 609.607L106.536 614.588L92.7698 622.588L92.784 617.61L106.551 609.607Z" fill="#FFD08A"/>
<path d="M95.4351 619.14L95.4209 624.119L92.7698 622.587L92.784 617.609L95.4351 619.14Z" fill="#808285"/>
<path d="M109.204 611.138L109.189 616.119L95.4209 624.119L95.4351 619.14L109.204 611.138Z" fill="#808285"/>
<path d="M109.204 611.139L95.4355 619.141L92.7844 617.61L106.551 609.607L109.204 611.139Z" fill="#808285"/>
<path d="M119.798 617.257L119.784 622.235L106.017 630.237L106.031 625.257L119.798 617.257Z" fill="#FFD08A"/>
<path d="M108.67 626.78L108.656 631.761L106.017 630.238L106.031 625.257L108.67 626.78Z" fill="#808285"/>
<path d="M122.437 618.78L108.67 626.78L106.031 625.257L119.798 617.257L122.437 618.78Z" fill="#808285"/>
<path d="M122.437 618.78L122.423 623.758L108.656 631.76L108.67 626.78L122.437 618.78Z" fill="#808285"/>
<path d="M133.033 624.896L133.019 629.877L119.25 637.877L119.265 632.899L133.033 624.896Z" fill="#FFD08A"/>
<path d="M121.918 634.43L121.903 639.409L119.25 637.877L119.265 632.899L121.918 634.43Z" fill="#808285"/>
<path d="M135.684 626.428L135.67 631.408L121.903 639.408L121.918 634.43L135.684 626.428Z" fill="#808285"/>
<path d="M135.684 626.428L121.918 634.43L119.265 632.899L133.033 624.896L135.684 626.428Z" fill="#808285"/>
<path d="M146.28 632.544L146.266 637.524L132.498 645.525L132.512 640.546L146.28 632.544Z" fill="#FFD08A"/>
<path d="M148.919 634.069L135.151 642.069L132.512 640.546L146.281 632.544L148.919 634.069Z" fill="#808285"/>
<path d="M135.151 642.069L135.136 647.05L132.498 645.525L132.512 640.546L135.151 642.069Z" fill="#808285"/>
<path d="M148.919 634.069L148.905 639.048L135.136 647.05L135.151 642.069L148.919 634.069Z" fill="#808285"/>
<path d="M159.513 640.186L159.499 645.164L145.733 653.166L145.747 648.186L159.513 640.186Z" fill="#FFD08A"/>
<path d="M148.398 649.717L148.384 654.698L145.733 653.166L145.747 648.186L148.398 649.717Z" fill="#808285"/>
<path d="M162.167 641.718L162.152 646.696L148.384 654.698L148.398 649.718L162.167 641.718Z" fill="#808285"/>
<path d="M162.167 641.717L148.398 649.717L145.747 648.186L159.514 640.186L162.167 641.717Z" fill="#808285"/>
<path d="M172.761 647.834L172.747 652.812L158.98 660.815L158.994 655.836L172.761 647.834Z" fill="#FFD08A"/>
<path d="M161.633 657.359L161.619 662.337L158.98 660.814L158.994 655.835L161.633 657.359Z" fill="#808285"/>
<path d="M175.4 649.357L161.633 657.359L158.994 655.836L172.761 647.834L175.4 649.357Z" fill="#808285"/>
<path d="M175.4 649.357L175.387 654.338L161.619 662.338L161.633 657.36L175.4 649.357Z" fill="#808285"/>
<path d="M185.996 655.476L185.982 660.454L172.213 668.456L172.227 663.476L185.996 655.476Z" fill="#FFD08A"/>
<path d="M174.881 665.006L174.866 669.987L172.213 668.456L172.227 663.475L174.881 665.006Z" fill="#808285"/>
<path d="M188.647 657.007L188.635 661.985L174.866 669.987L174.881 665.007L188.647 657.007Z" fill="#808285"/>
<path d="M188.647 657.007L174.881 665.007L172.228 663.476L185.996 655.476L188.647 657.007Z" fill="#808285"/>
<path d="M199.243 663.124L199.229 668.102L185.46 676.104L185.475 671.124L199.243 663.124Z" fill="#FFD08A"/>
<path d="M201.882 664.646L201.868 669.627L188.099 677.627L188.114 672.649L201.882 664.646Z" fill="#808285"/>
<path d="M188.114 672.649L188.099 677.628L185.46 676.105L185.475 671.124L188.114 672.649Z" fill="#808285"/>
<path d="M201.882 664.647L188.114 672.649L185.475 671.124L199.243 663.124L201.882 664.647Z" fill="#808285"/>
<path d="M212.478 670.763L212.464 675.744L198.695 683.744L198.71 678.765L212.478 670.763Z" fill="#FFD08A"/>
<path d="M215.129 672.294L215.115 677.274L201.347 685.275L201.361 680.296L215.129 672.294Z" fill="#808285"/>
<path d="M201.361 680.297L201.347 685.275L198.695 683.744L198.71 678.766L201.361 680.297Z" fill="#808285"/>
<path d="M215.13 672.294L201.361 680.296L198.71 678.765L212.479 670.763L215.13 672.294Z" fill="#808285"/>
<path d="M225.724 678.414L225.712 683.392L211.943 691.394L211.957 686.414L225.724 678.414Z" fill="#FFD08A"/>
<path d="M228.365 679.937L214.596 687.937L211.957 686.414L225.724 678.414L228.365 679.937Z" fill="#808285"/>
<path d="M214.596 687.936L214.582 692.917L211.943 691.394L211.957 686.413L214.596 687.936Z" fill="#808285"/>
<path d="M228.364 679.936L228.35 684.914L214.582 692.916L214.596 687.936L228.364 679.936Z" fill="#808285"/>
<path d="M238.959 686.053L238.944 691.034L225.176 699.034L225.19 694.055L238.959 686.053Z" fill="#FFD08A"/>
<path d="M241.612 687.584L241.598 692.564L227.829 700.565L227.843 695.586L241.612 687.584Z" fill="#808285"/>
<path d="M241.612 687.584L227.843 695.587L225.19 694.055L238.959 686.053L241.612 687.584Z" fill="#808285"/>
<path d="M227.843 695.586L227.829 700.564L225.176 699.033L225.19 694.055L227.843 695.586Z" fill="#808285"/>
<path d="M252.206 693.701L252.192 698.681L238.423 706.681L238.438 701.703L252.206 693.701Z" fill="#FFD08A"/>
<path d="M241.076 703.226L241.062 708.207L238.423 706.682L238.438 701.703L241.076 703.226Z" fill="#808285"/>
<path d="M254.845 695.226L241.077 703.226L238.438 701.703L252.206 693.701L254.845 695.226Z" fill="#808285"/>
<path d="M254.845 695.226L254.831 700.204L241.062 708.206L241.076 703.226L254.845 695.226Z" fill="#808285"/>
<path d="M265.441 701.342L265.427 706.32L251.658 714.322L251.673 709.342L265.441 701.342Z" fill="#FFD08A"/>
<path d="M254.324 710.874L254.31 715.854L251.658 714.323L251.673 709.343L254.324 710.874Z" fill="#808285"/>
<path d="M268.092 702.873L254.324 710.873L251.673 709.342L265.441 701.342L268.092 702.873Z" fill="#808285"/>
<path d="M268.092 702.873L268.078 707.851L254.31 715.854L254.324 710.873L268.092 702.873Z" fill="#808285"/>
<path d="M278.689 708.99L278.674 713.97L264.906 721.97L264.92 716.992L278.689 708.99Z" fill="#FFD08A"/>
<path d="M267.559 718.515L267.545 723.494L264.906 721.971L264.92 716.992L267.559 718.515Z" fill="#808285"/>
<path d="M281.327 710.513L267.559 718.515L264.92 716.992L278.689 708.99L281.327 710.513Z" fill="#808285"/>
<path d="M281.328 710.513L281.313 715.493L267.545 723.493L267.559 718.515L281.328 710.513Z" fill="#808285"/>
<path d="M291.922 716.632L291.907 721.611L278.139 729.613L278.153 724.632L291.922 716.632Z" fill="#FFD08A"/>
<path d="M280.806 726.163L280.792 731.144L278.139 729.612L278.153 724.632L280.806 726.163Z" fill="#808285"/>
<path d="M294.575 718.164L280.806 726.164L278.153 724.632L291.922 716.632L294.575 718.164Z" fill="#808285"/>
<path d="M294.575 718.163L294.561 723.142L280.792 731.144L280.806 726.163L294.575 718.163Z" fill="#808285"/>
<path d="M305.169 724.279L305.155 729.258L291.386 737.26L291.4 732.279L305.169 724.279Z" fill="#FFD08A"/>
<path d="M307.808 725.802L294.039 733.805L291.4 732.279L305.169 724.279L307.808 725.802Z" fill="#808285"/>
<path d="M294.039 733.804L294.027 738.783L291.386 737.26L291.4 732.279L294.039 733.804Z" fill="#808285"/>
<path d="M307.808 725.803L307.794 730.783L294.027 738.783L294.039 733.805L307.808 725.803Z" fill="#808285"/>
<path d="M313.051 741.231L313.037 746.211C313.039 745.289 312.428 744.366 311.21 743.664C308.779 742.261 304.88 742.253 302.463 743.656C301.263 744.352 300.663 745.264 300.661 746.175L300.675 741.196C300.677 740.284 301.278 739.374 302.479 738.677C304.894 737.274 308.795 737.28 311.226 738.685C312.442 739.386 313.053 740.308 313.051 741.231Z" fill="#EDB35C"/>
<path d="M334.172 741.025L334.158 746.004L306.635 762L306.649 757.02L334.172 741.025Z" fill="#EDB35C"/>
<path d="M307.808 725.803L334.172 741.025L306.649 757.019L6.31812 583.623L33.841 567.629L40.3405 571.382L26.5719 579.384L29.225 580.915L42.9936 572.913L53.5878 579.029L39.8192 587.032L42.4724 588.563L56.2409 580.563L66.8229 586.671L53.0543 594.673L55.7054 596.205L69.474 588.202L80.0682 594.319L66.2996 602.321L68.9507 603.852L82.7193 595.85L93.3013 601.961L79.5327 609.963L82.1838 611.494L95.9524 603.492L106.547 609.609L92.778 617.609L95.4291 619.14L109.198 611.138L119.794 617.254L106.025 625.257L108.664 626.78L122.433 618.777L133.027 624.894L119.258 632.896L121.909 634.427L135.678 626.425L146.274 632.542L132.506 640.544L135.145 642.067L148.913 634.065L159.507 640.182L145.739 648.184L148.39 649.715L162.158 641.713L172.755 647.83L158.986 655.832L161.625 657.355L175.394 649.353L185.99 655.469L172.221 663.471L174.872 665.003L188.641 657L199.237 663.117L185.469 671.119L188.107 672.642L201.876 664.64L212.472 670.757L198.704 678.759L201.355 680.29L215.123 672.288L225.718 678.405L211.949 686.407L214.588 687.93L228.356 679.928L238.951 686.044L225.182 694.047L227.833 695.578L241.602 687.576L252.198 693.692L238.429 701.694L241.068 703.217L254.837 695.215L265.433 701.332L251.664 709.334L254.318 710.865L268.086 702.863L278.682 708.98L264.914 716.982L267.553 718.505L281.321 710.505L291.917 716.622L278.149 724.624L280.802 726.155L294.571 718.153L305.165 724.269L291.396 732.272L294.035 733.795L307.808 725.803ZM302.506 743.749C304.925 745.146 308.836 745.146 311.253 743.741C313.668 742.338 313.643 740.078 311.224 738.683C308.793 737.281 304.894 737.272 302.477 738.675C300.062 740.078 300.074 742.347 302.506 743.749Z" fill="#FFD08A"/>
<path d="M306.649 757.019L306.635 762L6.30396 588.601L6.3182 583.623L306.649 757.019Z" fill="#D1973F"/>
<path d="M520.722 617.497L507.432 597.18L508.35 596.867L536.999 595.289L520.722 617.497Z" fill="#F2F2F2"/>
<path d="M531.121 603.311C531.237 602.997 531.296 602.625 531.296 602.207C531.308 600 529.75 597.304 527.822 596.199C527.543 596.036 527.264 595.92 527.008 595.838L537.001 595.292L531.121 603.311Z" fill="#262526"/>
<path d="M513.32 597.96C510.887 596.555 508.68 596.424 507.088 597.351L347.389 690.157C347.393 690.155 347.399 690.153 347.405 690.149C345.823 691.059 344.839 693.006 344.831 695.775C344.815 701.334 348.727 708.108 353.564 710.902C356.159 712.398 358.482 712.439 360.09 711.311C359.993 711.38 359.901 711.456 359.799 711.515L372.138 704.343L519.498 618.708C521.072 617.794 522.045 615.849 522.053 613.086C522.068 607.528 518.164 600.755 513.32 597.96Z" fill="#49484A"/>
<path d="M353.603 697.077C355.413 698.121 356.869 700.646 356.865 702.717C356.859 704.788 355.393 705.633 353.583 704.588C351.781 703.548 350.323 701.015 350.329 698.944C350.333 696.871 351.799 696.036 353.603 697.077Z" fill="#262526"/>
<path d="M353.62 690.76C358.464 693.558 362.369 700.328 362.353 705.887C362.336 711.446 358.407 713.694 353.563 710.896C348.725 708.102 344.813 701.328 344.829 695.769C344.846 690.21 348.784 687.967 353.62 690.76ZM353.581 704.588C355.391 705.632 356.857 704.789 356.863 702.717C356.869 700.646 355.411 698.121 353.601 697.076C351.799 696.036 350.333 696.871 350.327 698.944C350.321 701.014 351.779 703.545 353.581 704.588Z" fill="#F2F2F2"/>
<path d="M581.32 630.534L568.028 610.217L568.947 609.904L597.596 608.326L581.32 630.534Z" fill="#F2F2F2"/>
<path d="M591.719 616.348C591.835 616.034 591.894 615.662 591.894 615.244C591.907 613.037 590.349 610.341 588.421 609.238C588.142 609.075 587.863 608.959 587.606 608.877L597.6 608.332L591.719 616.348Z" fill="#262526"/>
<path d="M573.917 610.997C571.484 609.592 569.277 609.462 567.682 610.388L407.983 703.195C407.99 703.193 407.994 703.191 408 703.187C406.418 704.097 405.434 706.044 405.428 708.813C405.412 714.371 409.323 721.146 414.161 723.939C416.755 725.436 419.078 725.477 420.687 724.349C420.589 724.418 420.498 724.493 420.396 724.552L432.735 717.381L580.095 631.746C581.669 630.831 582.642 628.887 582.65 626.124C582.666 620.565 578.763 613.793 573.917 610.997Z" fill="#FFD08A"/>
<path d="M414.2 710.114C416.01 711.158 417.466 713.683 417.462 715.754C417.456 717.825 415.99 718.67 414.179 717.625C412.377 716.585 410.919 714.052 410.926 711.981C410.932 709.908 412.398 709.073 414.2 710.114Z" fill="#262526"/>
<path d="M414.218 703.798C419.062 706.595 422.968 713.366 422.951 718.924C422.935 724.483 419.005 726.731 414.161 723.933C409.323 721.14 405.412 714.365 405.428 708.807C405.444 703.248 409.382 701.004 414.218 703.798ZM414.179 717.625C415.99 718.67 417.456 717.827 417.462 715.754C417.468 713.683 416.01 711.158 414.2 710.114C412.398 709.073 410.932 709.908 410.926 711.981C410.92 714.052 412.375 716.583 414.179 717.625Z" fill="#F2F2F2"/>
<path d="M350.333 44.1514C347.933 46.0837 344.888 48.2542 342.895 48.6554" stroke="#FCB28D" stroke-width="3.3211" stroke-miterlimit="10" stroke-linecap="round" stroke-linejoin="round"/>
<path d="M294.123 63.5139C294.123 63.5139 314.069 67.8245 340.004 51.248" stroke="#FE96A4" stroke-width="4" stroke-miterlimit="10" stroke-linecap="round" stroke-linejoin="round"/>
<path d="M312.717 159.224C312.717 159.224 322.269 163.6 322.444 171.087C322.619 178.574 302.734 167.153 302.104 164.308C301.477 161.462 303.387 155.976 305.263 156.644C307.14 157.308 312.717 159.224 312.717 159.224Z" fill="#49484A"/>
<path d="M281.197 105.019C281.197 105.019 309.746 128.476 308.706 158.607" stroke="#389BD1" stroke-width="5" stroke-miterlimit="10" stroke-linecap="round" stroke-linejoin="round"/>
<path d="M326.761 151.734C326.761 151.734 336.312 156.11 336.487 163.597C336.663 171.084 316.777 159.663 316.148 156.818C315.521 153.972 317.431 148.486 319.306 149.154C321.184 149.818 326.761 151.734 326.761 151.734Z" fill="#49484A"/>
<path d="M295.241 97.5283C295.241 97.5283 323.79 120.985 322.749 151.116" stroke="#389BD1" stroke-width="5" stroke-miterlimit="10" stroke-linecap="round" stroke-linejoin="round"/>
<path d="M272.949 66.6642L273.046 101.041C273.054 103.991 274.628 106.718 277.18 108.2C279.753 109.697 282.932 109.701 285.51 108.212L297.831 101.098C300.408 99.6094 301.992 96.8565 301.984 93.8796L301.907 66.4646C301.905 65.9821 301.811 65.5097 301.779 65.0271C301.459 60.3907 299.822 57.0392 297.399 53.2132C296.637 52.0099 295.576 51.0223 294.324 50.3443C293.595 49.9493 292.909 49.5909 292.357 49.3058C291.514 48.8721 290.606 48.585 289.665 48.4629C287.08 48.1269 284.683 47.9986 283.239 48.8314C281.875 49.6235 279.654 51.7574 278.839 52.5637C278.636 52.7632 278.444 52.9689 278.263 53.1888C275.08 57.0535 272.936 62.1866 272.949 66.6642Z" fill="#FE96A4"/>
<path d="M284.123 56.3827C281.533 54.8882 281.423 51.0989 284.003 49.588C284.019 49.5778 284.038 49.5677 284.054 49.5575C285.282 48.8489 286.554 48.4926 287.703 48.3582C288.456 48.2686 289.22 48.4213 289.898 48.7654L292.777 50.2213C294.915 51.4633 295.314 54.3975 293.573 56.1526C292.938 56.792 292.252 57.3357 291.535 57.751C289.659 58.8343 288.32 58.6286 286.768 57.9037C286.654 57.8508 286.544 57.7918 286.436 57.7286C285.728 57.3112 284.925 56.8449 284.123 56.3827Z" fill="#FCB28D"/>
<path d="M285.774 43.6082C286.984 42.9118 288.963 42.8752 290.172 43.5268C291.382 44.1783 291.376 45.4469 290.166 46.1473C288.957 46.8457 286.98 46.8457 285.772 46.1473C284.565 45.4489 284.565 44.3046 285.774 43.6082Z" fill="#FCA579"/>
<path d="M285.772 46.1466C286.982 46.845 288.959 46.845 290.166 46.1466C290.783 45.7903 291.085 45.2853 291.075 44.7905H291.077V50.728L291.073 50.73C291.052 51.2004 290.751 51.6707 290.166 52.0087C288.957 52.7072 286.98 52.7072 285.772 52.0087C285.164 51.6565 284.862 51.1922 284.866 50.728V44.876C284.866 45.3362 285.17 45.7964 285.772 46.1466Z" fill="#F09365"/>
<path d="M284.874 44.7905C284.872 44.819 284.866 44.8475 284.866 44.876V44.7905H284.874Z" fill="#FCB28D"/>
<path d="M277.092 30.8655V38.3525C277.092 44.3328 281.94 49.1768 287.916 49.1768C293.893 49.1768 298.741 44.3348 298.741 38.3525V30.8655C298.741 29.994 298.637 29.149 298.441 28.3427C298.395 28.1269 298.336 27.9171 298.268 27.7074C296.92 23.2747 292.791 20.0474 287.916 20.0474C284.931 20.0474 282.223 21.2589 280.262 23.2156C278.306 25.1724 277.092 27.8744 277.092 30.8655Z" fill="#FCB28D"/>
<path d="M277.717 34.8811C278.053 34.6877 278.369 34.6042 278.642 34.6124L280.998 35.9807C280.725 35.9725 280.409 36.056 280.073 36.2494C278.98 36.8806 278.086 38.4281 278.09 39.6845C278.092 40.3136 278.316 40.7555 278.674 40.9632L276.318 39.5949C275.96 39.3872 275.736 38.9433 275.734 38.3162C275.73 37.0598 276.624 35.5123 277.717 34.8811Z" fill="#F59D71"/>
<path d="M280.073 36.2493C278.98 36.8805 278.086 38.428 278.09 39.6843C278.094 40.9467 278.992 41.4598 280.085 40.8286C280.421 40.6352 280.737 40.3542 281.008 40.0264L280.995 35.9805C280.725 35.9724 280.409 36.0559 280.073 36.2493Z" fill="#FCB28D"/>
<path d="M280.081 37.4043C280.452 37.1905 280.812 37.2047 281.006 37.4816L281.01 38.7135C280.91 38.9803 280.755 39.2409 280.552 39.4628C280.403 39.6318 280.244 39.7642 280.087 39.8538C279.692 40.0818 279.309 40.0493 279.124 39.7153C278.872 39.2531 279.088 38.3918 279.621 37.7891C279.77 37.6221 279.926 37.4939 280.081 37.4043Z" fill="#E88861"/>
<path d="M260.994 117.646C260.842 114.569 260.874 110.831 261.721 108.98" stroke="#FCB28D" stroke-width="3.3211" stroke-miterlimit="10" stroke-linecap="round" stroke-linejoin="round"/>
<path d="M278.361 60.7876C278.361 60.7876 263.153 74.3933 261.322 105.119" stroke="#FE96A4" stroke-width="4" stroke-miterlimit="10" stroke-linecap="round" stroke-linejoin="round"/>
<path d="M294.263 18.2114C290.427 17.0365 288.161 17.8856 286.98 18.7123C285.373 18.7856 283.773 19.1073 282.246 19.7059C279.08 20.9439 276.862 23.8393 276.492 27.2214L276.084 30.9517C275.879 32.8331 277.005 34.6087 278.794 35.2236L278.831 35.2358C280.01 35.643 280.761 36.7079 280.975 37.9378C281.161 39.0129 281.729 39.8844 282.924 39.6461C284.84 39.2633 283.649 37.8095 284.697 36.5064C285.194 35.8894 284.923 35.0485 284.874 34.0202C285.846 33.9164 286.841 32.6906 287.892 30.068C288.045 29.6893 288.132 29.3533 288.224 29.0153C290.928 27.48 292.537 29.0255 296.185 28.1907C298.523 27.6551 299.227 26.0079 299.394 24.6538C301.726 22.2491 300.498 20.1193 294.263 18.2114Z" fill="#262526"/>
<path d="M639.359 374.712C638.457 377.656 637.156 381.162 635.733 382.614" stroke="#FCB28D" stroke-width="3.3211" stroke-miterlimit="10" stroke-linecap="round" stroke-linejoin="round"/>
<path d="M603.706 422.287C603.706 422.287 622.634 414.658 634.794 386.383" stroke="#FE7386" stroke-width="4" stroke-miterlimit="10" stroke-linecap="round" stroke-linejoin="round"/>
<path d="M628.574 519.185C628.574 519.185 638.126 523.56 638.301 531.047C638.476 538.534 618.591 527.113 617.961 524.269C617.334 521.422 619.244 515.937 621.119 516.605C622.997 517.266 628.574 519.185 628.574 519.185Z" fill="#50B9F2"/>
<path d="M597.054 464.979C597.054 464.979 625.603 488.436 624.563 518.567" stroke="#49484A" stroke-width="5" stroke-miterlimit="10" stroke-linecap="round" stroke-linejoin="round"/>
<path d="M642.617 511.691C642.617 511.691 652.169 516.067 652.344 523.554C652.519 531.041 632.634 519.62 632.005 516.776C631.378 513.929 633.287 508.444 635.163 509.112C637.04 509.775 642.617 511.691 642.617 511.691Z" fill="#50B9F2"/>
<path d="M611.097 457.486C611.097 457.486 639.647 480.943 638.606 511.074" stroke="#49484A" stroke-width="5" stroke-miterlimit="10" stroke-linecap="round" stroke-linejoin="round"/>
<path d="M588.805 426.622L588.903 460.998C588.911 463.949 590.485 466.675 593.037 468.157C595.61 469.654 598.789 469.658 601.367 468.17L613.687 461.057C616.265 459.569 617.849 456.816 617.841 453.839L617.764 426.424C617.762 425.942 617.668 425.469 617.636 424.987C617.316 420.35 615.679 416.999 613.256 413.173C612.494 411.969 611.433 410.982 610.183 410.304C609.454 409.909 608.768 409.55 608.214 409.265C607.371 408.832 606.463 408.544 605.522 408.422C602.936 408.086 600.54 407.958 599.096 408.791C597.732 409.583 595.511 411.717 594.696 412.523C594.493 412.723 594.301 412.928 594.12 413.148C590.937 417.011 588.793 422.146 588.805 426.622Z" fill="#FE7386"/>
<path d="M599.98 416.342C597.39 414.847 597.28 411.058 599.86 409.547C599.876 409.537 599.895 409.527 599.911 409.518C601.139 408.81 602.413 408.454 603.56 408.319C604.315 408.23 605.077 408.382 605.755 408.726L608.634 410.182C610.772 411.424 611.171 414.358 609.43 416.114C608.797 416.753 608.108 417.297 607.392 417.712C605.516 418.795 604.177 418.59 602.625 417.865C602.511 417.812 602.401 417.753 602.293 417.69C601.585 417.27 600.782 416.806 599.98 416.342Z" fill="#FCB28D"/>
<path d="M601.633 403.567C602.843 402.87 604.822 402.834 606.031 403.485C607.241 404.137 607.235 405.407 606.025 406.106C604.816 406.804 602.839 406.804 601.631 406.106C600.424 405.407 600.424 404.265 601.633 403.567Z" fill="#FCA579"/>
<path d="M601.631 406.106C602.841 406.804 604.818 406.804 606.025 406.106C606.64 405.749 606.944 405.244 606.931 404.75L606.933 410.687L606.929 410.689C606.909 411.159 606.608 411.63 606.023 411.968C604.814 412.666 602.837 412.666 601.629 411.968C601.02 411.616 600.719 411.151 600.725 410.687V404.837C600.725 405.295 601.026 405.757 601.631 406.106Z" fill="#F09365"/>
<path d="M600.731 404.752C600.729 404.78 600.725 404.809 600.725 404.837V404.75L600.731 404.752Z" fill="#FCB28D"/>
<path d="M592.951 390.826V398.313C592.951 404.294 597.799 409.138 603.775 409.138C609.752 409.138 614.6 404.296 614.6 398.313V390.826C614.6 389.955 614.494 389.11 614.3 388.304C614.253 388.088 614.194 387.878 614.127 387.668C612.779 383.236 608.65 380.008 603.775 380.008C600.79 380.008 598.082 381.22 596.121 383.177C594.163 385.133 592.951 387.835 592.951 390.826Z" fill="#FCB28D"/>
<path d="M576.853 477.605C576.7 474.529 576.733 470.79 577.58 468.941" stroke="#FCB28D" stroke-width="3.3211" stroke-miterlimit="10" stroke-linecap="round" stroke-linejoin="round"/>
<path d="M594.218 420.748C594.218 420.748 579.009 434.353 577.179 465.079" stroke="#FE7386" stroke-width="4" stroke-miterlimit="10" stroke-linecap="round" stroke-linejoin="round"/>
<path d="M610.12 378.17C606.284 376.995 604.018 377.844 602.837 378.671C601.23 378.744 599.632 379.066 598.103 379.662C594.936 380.9 592.719 383.796 592.35 387.178L592.24 388.188C588.535 389.595 584.855 394.184 586.657 397.306C583.19 399.735 579.626 402.378 584.244 404.901C586.197 405.968 585.7 415.558 594.22 414.367C605.007 412.858 602.12 408.218 600.733 403.019C599.461 398.249 601.635 398.992 600.623 396.324C600.99 395.722 600.778 394.936 600.731 393.979C601.702 393.875 602.696 392.649 603.749 390.026C603.902 389.648 603.989 389.312 604.081 388.974C606.785 387.439 608.393 388.984 612.042 388.149C614.38 387.614 615.084 385.966 615.251 384.612C617.583 382.21 616.355 380.08 610.12 378.17Z" fill="#262526"/>
<path d="M146.932 484.201C146.932 484.201 140.803 492.735 144.36 499.324C147.918 505.915 159.534 486.142 158.669 483.358C157.803 480.575 153.427 476.757 152.128 478.266C150.827 479.775 146.932 484.201 146.932 484.201Z" fill="#FE7386"/>
<path d="M97.2271 472.245C97.2271 472.245 86.7408 472.862 83.8637 479.777C80.9887 486.692 103.661 483.253 105.276 480.828C106.893 478.402 107.098 472.597 105.109 472.538C103.12 472.479 97.2271 472.245 97.2271 472.245Z" fill="#FE7386"/>
<path d="M141.801 412.761C141.801 412.761 119.462 436.128 150.115 480.313" stroke="#389BD1" stroke-width="5" stroke-miterlimit="10" stroke-linecap="round" stroke-linejoin="round"/>
<path d="M130.789 405.501C130.789 405.501 113.39 410.986 101.342 470.333" stroke="#389BD1" stroke-width="5" stroke-miterlimit="10" stroke-linecap="round" stroke-linejoin="round"/>
<path d="M129.38 366.586C129.38 366.586 121.73 395.099 107.86 379.671C107.86 379.671 101.603 372.174 101.344 361.907" stroke="#FE7386" stroke-width="4" stroke-miterlimit="10" stroke-linecap="round" stroke-linejoin="round"/>
<path d="M148.496 377.869L148.398 412.245C148.39 415.196 146.816 417.922 144.265 419.405C141.691 420.901 138.512 420.905 135.935 419.417L123.614 412.302C121.036 410.814 119.452 408.061 119.46 405.084L119.537 377.669C119.539 377.187 119.633 376.714 119.666 376.232C119.985 371.595 121.622 368.244 124.045 364.418C124.807 363.217 125.868 362.227 127.12 361.549C127.849 361.154 128.535 360.795 129.089 360.51C129.932 360.077 130.84 359.79 131.781 359.667C134.367 359.331 136.763 359.203 138.207 360.036C139.571 360.828 141.793 362.962 142.607 363.768C142.811 363.968 143.002 364.173 143.183 364.393C146.364 368.256 148.508 373.391 148.496 377.869Z" fill="#FE7386"/>
<path d="M137.321 367.588C139.911 366.093 140.021 362.304 137.441 360.793C137.425 360.783 137.407 360.773 137.39 360.765C136.163 360.056 134.888 359.7 133.742 359.565C132.986 359.478 132.225 359.63 131.547 359.972L128.668 361.428C126.53 362.67 126.13 365.605 127.871 367.36C128.505 367.999 129.193 368.543 129.91 368.958C131.785 370.041 133.125 369.836 134.676 369.111C134.79 369.058 134.9 368.999 135.008 368.936C135.717 368.514 136.519 368.05 137.321 367.588Z" fill="#FCB28D"/>
<path d="M135.668 354.813C134.458 354.116 132.479 354.08 131.27 354.731C130.06 355.383 130.066 356.651 131.276 357.352C132.485 358.05 134.463 358.05 135.67 357.352C136.879 356.651 136.877 355.509 135.668 354.813Z" fill="#FCA579"/>
<path d="M135.67 357.35C134.462 358.048 132.483 358.048 131.276 357.35C130.659 356.993 130.357 356.488 130.37 355.994L130.368 361.931L130.372 361.933C130.392 362.404 130.693 362.874 131.278 363.212C132.487 363.91 134.464 363.91 135.672 363.212C136.281 362.86 136.582 362.395 136.578 361.931V356.081C136.576 356.541 136.275 357.002 135.67 357.35Z" fill="#F09365"/>
<path d="M136.57 355.996C136.572 356.024 136.576 356.053 136.576 356.081V355.994L136.57 355.996Z" fill="#FCB28D"/>
<path d="M144.35 342.071V349.558C144.35 355.538 139.502 360.382 133.526 360.382C127.55 360.382 122.702 355.54 122.702 349.558V342.071C122.702 341.199 122.806 340.354 123.001 339.548C123.048 339.332 123.107 339.122 123.174 338.913C124.522 334.48 128.651 331.252 133.526 331.252C136.511 331.252 139.219 332.464 141.18 334.421C143.139 336.377 144.35 339.079 144.35 342.071Z" fill="#FCB28D"/>
<path d="M102.028 360.302C99.9027 358.073 97.4837 355.222 96.9136 353.27" stroke="#FCB28D" stroke-width="3.3211" stroke-miterlimit="10" stroke-linecap="round" stroke-linejoin="round"/>
<path d="M144.986 374.444C144.986 374.444 158.115 400.886 168.666 383.022C168.666 383.022 173.321 374.436 171.547 364.322" stroke="#FE7386" stroke-width="4" stroke-miterlimit="10" stroke-linecap="round" stroke-linejoin="round"/>
<path d="M170.556 362.882C172.201 360.278 174.009 357.006 174.182 354.978" stroke="#FCB28D" stroke-width="3.3211" stroke-miterlimit="10" stroke-linecap="round" stroke-linejoin="round"/>
<path d="M128.971 336.15C128.971 336.15 125.709 338.453 127.994 341.491C130.276 344.531 136.293 349.963 140.404 343.794C144.515 337.624 135.383 334.03 128.971 336.15Z" fill="#262526"/>
<path d="M143.178 348.46C143.178 348.46 148.176 352.392 150.381 345.815C152.587 339.241 151.536 340.32 159.273 335.537C167.011 330.754 167.774 322.526 167.18 318.791C166.585 315.059 163.72 306.829 157.052 310.561C150.381 314.293 152.434 317.857 145.385 319.555C138.335 321.251 136.58 323.945 133.528 327.105C130.478 330.267 124.646 328.972 127.181 332.45C129.716 335.928 137.429 336.333 140.117 341.073C142.803 345.817 140.807 348.263 143.178 348.46Z" fill="#262526"/>
<path d="M143.727 346.086C143.391 345.893 143.076 345.809 142.803 345.817L140.447 347.186C140.72 347.178 141.035 347.261 141.371 347.455C142.465 348.086 143.359 349.633 143.355 350.89C143.353 351.519 143.129 351.961 142.77 352.168L145.126 350.8C145.485 350.592 145.708 350.148 145.711 349.521C145.715 348.265 144.821 346.717 143.727 346.086Z" fill="#F59D71"/>
<path d="M141.371 347.454C142.465 348.086 143.359 349.633 143.355 350.889C143.351 352.152 142.453 352.665 141.359 352.034C141.023 351.84 140.71 351.559 140.437 351.231L140.449 347.186C140.72 347.177 141.035 347.261 141.371 347.454Z" fill="#FCB28D"/>
<path d="M141.363 348.607C140.993 348.393 140.632 348.408 140.441 348.687L140.437 349.918C140.537 350.185 140.691 350.446 140.895 350.668C141.044 350.837 141.202 350.969 141.359 351.059C141.754 351.287 142.137 351.254 142.322 350.92C142.575 350.458 142.359 349.597 141.825 348.994C141.675 348.827 141.518 348.697 141.363 348.607Z" fill="#E88861"/>
<path d="M124.624 332.678C121.673 334.103 121.96 338.562 125.137 339.365C125.178 339.375 125.218 339.385 125.261 339.395C129.458 340.356 130.954 338.163 134.524 341.136C138.093 344.109 135.699 346.408 136.747 347.711C137.796 349.014 136.607 350.468 138.521 350.851C140.435 351.234 140.738 348.77 140.447 347.186L142.648 346.428C144.438 345.811 145.564 344.038 145.358 342.156L144.951 338.426C144.582 335.046 142.365 332.151 139.197 330.911C135.352 329.408 131.056 329.573 127.338 331.369L124.624 332.678Z" fill="#262526"/>
<path d="M103.069 316.857L102.951 358.37L75.261 342.385L75.3791 300.871L103.069 316.857Z" fill="white"/>
<path d="M375.673 0L375.804 46.0989L346.67 62.9197L346.54 16.8208L375.673 0Z" fill="white"/>
</svg>
